<?xml version="1.0" encoding="UTF-8" standalone="no"?>
<!DOCTYPE svg PUBLIC "-//W3C//DTD SVG 1.1//EN"
 "http://www.w3.org/Graphics/SVG/1.1/DTD/svg11.dtd">
<!-- Generated by graphviz version 2.43.0 (0)
 -->
<!-- Title: G Pages: 1 -->
<svg width="290pt" height="188pt"
 viewBox="0.00 0.00 289.89 188.00" xmlns="http://www.w3.org/2000/svg" xmlns:xlink="http://www.w3.org/1999/xlink">
<g id="graph0" class="graph" transform="scale(1 1) rotate(0) translate(4 184)">
<title>G</title>
<polygon fill="white" stroke="transparent" points="-4,4 -4,-184 285.89,-184 285.89,4 -4,4"/>
<!-- Node0 -->
<g id="node1" class="node">
<title>Node0</title>
<ellipse fill="none" stroke="black" cx="40.95" cy="-162" rx="40.89" ry="18"/>
<text text-anchor="middle" x="40.95" y="-158.3" font-family="Times,serif" font-size="14.00">Node0</text>
</g>
<!-- Node3 -->
<g id="node2" class="node">
<title>Node3</title>
<ellipse fill="none" stroke="black" cx="140.95" cy="-90" rx="40.89" ry="18"/>
<text text-anchor="middle" x="140.95" y="-86.3" font-family="Times,serif" font-size="14.00">Node3</text>
</g>
<!-- Node0&#45;&gt;Node3 -->
<g id="edge1" class="edge">
<title>Node0&#45;&gt;Node3</title>
<path fill="none" stroke="black" d="M62.15,-146.15C76.57,-136.06 95.83,-122.58 111.7,-111.47"/>
<polygon fill="black" stroke="black" points="113.93,-114.19 120.11,-105.58 109.91,-108.45 113.93,-114.19"/>
</g>
<!-- Node4 -->
<g id="node5" class="node">
<title>Node4</title>
<ellipse fill="none" stroke="black" cx="140.95" cy="-18" rx="40.89" ry="18"/>
<text text-anchor="middle" x="140.95" y="-14.3" font-family="Times,serif" font-size="14.00">Node4</text>
</g>
<!-- Node3&#45;&gt;Node4 -->
<g id="edge4" class="edge">
<title>Node3&#45;&gt;Node4</title>
<path fill="none" stroke="black" d="M140.95,-71.7C140.95,-63.98 140.95,-54.71 140.95,-46.11"/>
<polygon fill="black" stroke="black" points="144.45,-46.1 140.95,-36.1 137.45,-46.1 144.45,-46.1"/>
</g>
<!-- Node1 -->
<g id="node3" class="node">
<title>Node1</title>
<ellipse fill="none" stroke="black" cx="140.95" cy="-162" rx="40.89" ry="18"/>
<text text-anchor="middle" x="140.95" y="-158.3" font-family="Times,serif" font-size="14.00">Node1</text>
</g>
<!-- Node1&#45;&gt;Node3 -->
<g id="edge2" class="edge">
<title>Node1&#45;&gt;Node3</title>
<path fill="none" stroke="black" d="M140.95,-143.7C140.95,-135.98 140.95,-126.71 140.95,-118.11"/>
<polygon fill="black" stroke="black" points="144.45,-118.1 140.95,-108.1 137.45,-118.1 144.45,-118.1"/>
</g>
<!-- Node2 -->
<g id="node4" class="node">
<title>Node2</title>
<ellipse fill="none" stroke="black" cx="240.95" cy="-162" rx="40.89" ry="18"/>
<text text-anchor="middle" x="240.95" y="-158.3" font-family="Times,serif" font-size="14.00">Node2</text>
</g>
<!-- Node2&#45;&gt;Node3 -->
<g id="edge3" class="edge">
<title>Node2&#45;&gt;Node3</title>
<path fill="none" stroke="black" d="M219.74,-146.15C205.32,-136.06 186.06,-122.58 170.2,-111.47"/>
<polygon fill="black" stroke="black" points="171.98,-108.45 161.78,-105.58 167.97,-114.19 171.98,-108.45"/>
</g>
</g>
</svg>
